<?xml version="1.0" standalone="no"?>
<!DOCTYPE svg PUBLIC "-//W3C//DTD SVG 1.1//EN" "http://www.w3.org/Graphics/SVG/1.1/DTD/svg11.dtd" >
<!--
2013-9-30: Created.
-->
<svg>
<metadata>
Created by iconfont
</metadata>
<defs>

<font id="iconfont" horiz-adv-x="1024" >
  <font-face
    font-family="iconfont"
    font-weight="500"
    font-stretch="normal"
    units-per-em="1024"
    ascent="896"
    descent="-128"
  />
    <missing-glyph />
    
    <glyph glyph-name="x" unicode="x" horiz-adv-x="1001"
d="M281 543q-27 -1 -53 -1h-83q-18 0 -36.5 -6t-32.5 -18.5t-23 -32t-9 -45.5v-76h912v41q0 16 -0.5 30t-0.5 18q0 13 -5 29t-17 29.5t-31.5 22.5t-49.5 9h-133v-97h-438v97zM955 310v-52q0 -23 0.5 -52t0.5 -58t-10.5 -47.5t-26 -30t-33 -16t-31.5 -4.5q-14 -1 -29.5 -0.5
t-29.5 0.5h-32l-45 128h-439l-44 -128h-29h-34q-20 0 -45 1q-25 0 -41 9.5t-25.5 23t-13.5 29.5t-4 30v167h911zM163 247q-12 0 -21 -8.5t-9 -21.5t9 -21.5t21 -8.5q13 0 22 8.5t9 21.5t-9 21.5t-22 8.5zM316 123q-8 -26 -14 -48q-5 -19 -10.5 -37t-7.5 -25t-3 -15t1 -14.5
t9.5 -10.5t21.5 -4h37h67h81h80h64h36q23 0 34 12t2 38q-5 13 -9.5 30.5t-9.5 34.5q-5 19 -11 39h-368zM336 498v228q0 11 2.5 23t10 21.5t20.5 15.5t34 6h188q31 0 51.5 -14.5t20.5 -52.5v-227h-327z" />
    

    
    <glyph glyph-name="fangbianjingxiaoshang" unicode="&#58905;" d="M914.176-25.888c0-42.112-34.176-76.288-76.288-76.288L186.24-102.176c-42.112 0-76.352 34.176-76.352 76.288l0 312.96L32 287.072l0-312.96c0-84.928 69.184-154.112 154.24-154.112l651.648 0c84.928 0 154.112 69.184 154.112 154.112l0 312.96-77.824 0L914.176-25.888zM837.888 780 186.24 780C101.184 780 32 710.816 32 625.76l0-312.832 77.824 0L109.824 625.76c0 42.112 34.304 76.416 76.352 76.416l651.648 0c42.112 0 76.288-34.304 76.288-76.416l0-312.832L992 312.928 992 625.76C992 710.816 922.816 780 837.888 780zM753.152 446.368c0 129.28-104.832 234.112-234.176 234.112-129.28 0-234.048-104.832-234.048-234.112 0-42.688 11.648-82.624 31.552-117.12L316.096 329.248l202.752-409.664 202.944 409.664-0.32 0C741.568 363.808 753.152 403.68 753.152 446.368M518.976 329.248c-64.704 0-117.056 52.416-117.056 117.12 0 64.64 52.352 116.992 117.056 116.992 64.832 0 117.056-52.352 117.056-116.992C636.032 381.664 583.808 329.248 518.976 329.248"  horiz-adv-x="1024" />

    
    <glyph glyph-name="dingwei" unicode="&#59237;" d="M918.187581 257.978954l-44.645826 0c-19.258623-167.486572-152.058185-300.17664-319.523267-319.479265l0-44.689828c0-23.198352-18.821671-42.020022-42.020022-42.020022s-42.020022 18.821671-42.020022 42.020022l0 44.689828C302.514383-42.196663 169.715845 90.493405 150.456199 257.978954l-44.645826 0c-23.198352 0-42.020022 18.821671-42.020022 42.020022 0 23.219841 18.821671 42.020022 42.020022 42.020022l44.689828 0c19.302625 167.465083 151.992693 300.264645 319.479265 319.54578L469.979466 706.188092c0 23.198352 18.821671 42.020022 42.020022 42.020022s42.020022-18.821671 42.020022-42.020022l0-44.689828c167.465083-19.302625 300.264645-151.992693 319.523267-319.479265l44.645826 0c23.198352 0 42.020022-18.799158 42.020022-42.020022C960.207603 276.800625 941.385932 257.978954 918.187581 257.978954zM708.090539 342.018999l80.537268 0c-18.2302 120.981399-113.670899 216.444611-234.609319 234.6963l0-80.625272c0-23.198352-18.821671-42.020022-42.020022-42.020022s-42.020022 18.821671-42.020022 42.020022l0 80.55978c-120.981399-18.252713-216.444611-113.693412-234.6963-234.630808l80.625272 0c23.198352 0 42.020022-18.799158 42.020022-42.020022 0-23.198352-18.821671-42.020022-42.020022-42.020022l-80.537268 0C253.623883 136.998579 349.043093 41.535367 469.979466 23.283678l0 80.624249c0 23.219841 18.821671 42.020022 42.020022 42.020022s42.020022-18.799158 42.020022-42.020022l0-80.624249c120.93842 18.251689 216.378096 113.714901 234.609319 234.6963L708.090539 257.979978c-23.198352 0-42.020022 18.821671-42.020022 42.020022C666.070516 323.219841 684.892187 342.018999 708.090539 342.018999zM511.999488 257.978954c-23.198352 0-42.020022 18.821671-42.020022 42.020022 0 23.219841 18.821671 42.020022 42.020022 42.020022s42.020022-18.799158 42.020022-42.020022C554.018487 276.800625 535.19784 257.978954 511.999488 257.978954z"  horiz-adv-x="1024" />

    
    <glyph glyph-name="msnui-coordinate" unicode="&#58952;" d="M512.027 830.139c-184.224 0-333.644-149.366-333.644-333.591 0-184.279 333.644-555.984 333.644-555.984s333.591 371.707 333.591 555.984c0 184.224-149.365 333.591-333.591 333.591zM512.027 274.155c-122.872 0-222.448 99.577-222.448 222.394s99.577 222.394 222.448 222.394c122.815 0 222.394-99.577 222.394-222.394s-99.577-222.394-222.394-222.394zM512.027 607.745c-61.408 0-111.251-49.789-111.251-111.197s49.843-111.197 111.251-111.197c61.407 0 111.143 49.789 111.143 111.197 0 61.408-49.734 111.197-111.143 111.197z"  horiz-adv-x="1024" />

    
    <glyph glyph-name="dingwei1" unicode="&#58891;" d="M343.92912 219.100482 273.462209 219.100482l-61.178361-299.187103 599.432305 0-55.897078 300.129568-71.545476 0-19.24532-34.1948 56.706513 0 47.65537-232.160547L254.596536-46.3124l45.173852 233.336326 64.215534 0L343.92912 219.100482zM514.111081 105.235155c85.615936 113.865327 192.671161 279.631722 192.671161 350.684988 0 102.233406-86.441744 185.388291-192.697767 185.388291-106.213044 0-192.654788-83.154885-192.654788-185.388291C321.429687 384.940554 428.472632 219.140391 514.111081 105.235155M511.666402 598.335712c80.131015 0 145.345296-63.872726 145.345296-142.388964 0-78.525448-65.208141-142.402267-145.345296-142.402267-80.144318 0-145.349389 63.882959-145.349389 142.402267C366.318036 534.458893 431.523107 598.335712 511.666402 598.335712M514.187829 32.524133 514.187829 32.524133 514.187829 32.524133zM514.078335 32.63772c0 0-237.078557 296.302403-237.078557 423.282423 0 127.003556 106.152668 229.935879 237.078557 229.935879 130.97296 0 237.118466-102.932324 237.118466-229.935879C751.196801 328.937053 514.078335 32.63772 514.078335 32.63772L514.078335 32.63772 514.078335 32.63772 514.078335 32.63772zM511.666402 553.813706c-55.734372 0-100.930737-43.818995-100.930737-97.866958 0-54.052057 45.197388-97.874121 100.930737-97.874121 55.737442 0 100.93483 43.822065 100.93483 97.874121C612.601232 509.995735 567.403844 553.813706 511.666402 553.813706L511.666402 553.813706 511.666402 553.813706 511.666402 553.813706z"  horiz-adv-x="1024" />

    
    <glyph glyph-name="dingwei2" unicode="&#59168;" d="M651.678225 799.095033c-33.973019 17.60048-74.392725 28.8566-122.487059 31.107825-0.306985 0-0.716299 0-1.023284 0-1.637254 0.102328-3.274508 0.102328-4.911762 0.204657-1.432597 0-2.865194 0.102328-4.40012 0.102328-1.023284 0-1.944239 0-2.967523 0-1.22794 0-2.558209 0-3.78615 0-0.204657 0-0.409313 0-0.511642 0-0.204657 0-0.511642 0-0.716299 0-64.67153 0-116.449685-15.860897-157.790347-41.749975C254.746477 733.40022 188.335365 627.89967 188.335365 506.845208c-0.102328-313.534126 322.539023-567.206156 322.539023-567.206156s319.673828 253.67203 325.097232 567.206156C835.97162 635.676626 760.760268 747.009893 651.678225 799.095033z"  horiz-adv-x="1024" />

    
    <glyph glyph-name="dingwei3" unicode="&#58944;" d="M512 832C326.784 832 176.704 681.92 176.704 496.704c0-185.152 150.08-335.296 335.232-335.296s335.296 150.144 335.296 335.296C847.232 681.92 697.152 832 512 832M512 339.2c-86.976 0-157.504 70.528-157.504 157.504S425.024 654.272 512 654.272s157.504-70.528 157.504-157.504S598.912 339.2 512 339.2M240.704 299.712 512-64l265.344 355.712L240.704 299.712zM240.704 299.712"  horiz-adv-x="1024" />

    
    <glyph glyph-name="iconfontdingwei" unicode="&#58931;" d="M856.698206 290.146008c44.653592 79.802523 63.319392 143.308446 63.319392 197.836386 0 224.981347-183.035415 408.017606-408.017606 408.017606S103.982386 712.991594 103.982386 488.043164c0-90.400207 59.873204-216.78325 177.954333-375.637949C370.961996-7.359761 462.359007-103.459726 467.569225-108.915559c11.364067-12.130449 27.545877-19.084441 44.430767-19.084441l0.726713 0c17.214907 0 33.768092 7.626687 45.441075 20.953131l24.120789 27.869142c0.003376 0.00422 0.006752 0.007596 0.010972 0.010972 17.109403 19.09879 103.075058 119.164024 106.725503 123.413733 0.837281 0.974015 1.560618 2.003736 2.233313 3.056245 0.258274 0.386567 0.501356 0.775667 0.734309 1.175739 0.06077 0.106348 0.124073 0.211008 0.183155 0.318201 0.248146 0.443962 0.486163 0.904804 0.718273 1.394343l-0.023633 0.015193c5.027063 10.590088 2.6241 23.628718-6.696562 31.635219-11.169939 9.595817-28.001655 8.316262-37.595784-2.851145-0.211008-0.245614-5.33176-6.206178-13.239509-15.400235l-117.305463-135.534898c-0.720805-0.822933-2.679806-2.735513-5.305595-2.735513l-0.726713 0c-1.575811 0-3.815031 0.387411-5.530107 2.230781l-0.254898 0.270935c-3.784646 3.957673-93.707974 98.306269-181.484925 216.392462C215.198991 291.566516 157.303358 410.46045 157.303358 488.043164c0 195.547367 159.11635 354.635864 354.696634 354.635864s354.696634-159.11635 354.696634-354.696634c0-31.510302-9.039599-69.155884-26.937329-112.394032-1.018748-1.425573-1.91258-2.970998-2.657017-4.632056-42.755361-95.446683-111.416641-192.696222-112.237886-193.855924-0.427925-0.603484-0.806896-1.225537-1.177427-1.850121-0.041358-0.057394-0.081027-0.113945-0.122385-0.172183 0.003376-0.000844 0.006752-0.002532 0.010128-0.003376-6.878873-11.792836-3.744133-27.092631 7.603054-35.145555 4.682698-3.32296 10.071008-4.919871 15.406143-4.919871 8.346647 0 16.566689 3.908719 21.764248 11.233242 0.501356 0.706456 2.948209 4.166993 6.880561 9.913173l0 0c23.095288 31.309422 41.420944 62.359726 58.943079 93.551828 7.440999 12.828465 15.028016 26.377735 22.481676 40.359993C856.668665 290.093678 856.683013 290.119843 856.698206 290.146008zM312.013853 488.043164c0-53.452641 20.791921-103.692046 58.544695-141.462545 37.761214-37.778095 87.99218-58.583521 141.442288-58.583521 110.272976 0 199.986139 89.740173 199.986139 200.046066 0 110.275508-89.713164 199.991204-199.986139 199.991204S312.013853 598.318672 312.013853 488.043164zM658.666004 488.043164c0-80.90483-65.794099-146.725094-146.665168-146.725094s-146.665168 65.820264-146.665168 146.725094c0 80.874445 65.794099 146.670232 146.665168 146.670232S658.666004 568.917609 658.666004 488.043164z"  horiz-adv-x="1024" />

    
    <glyph glyph-name="location-active" unicode="&#58880;" d="M787.659 555.735c0 152.023-123.31 275.282-275.311 275.282-152.045 0-275.354-123.259-275.354-275.282 0-50.19 13.705-97.127 37.085-137.656h-0.207l238.369-481.789 238.507 481.789h-0.275c23.517 40.529 37.186 87.466 37.186 137.656zM512.31 474.020c-63.857 0-115.658 51.763-115.658 115.62 0 63.894 51.801 115.692 115.658 115.692 63.926 0 115.687-51.799 115.687-115.692 0-63.857-51.761-115.62-115.687-115.62z"  horiz-adv-x="1024" />

    
    <glyph glyph-name="dingwei4" unicode="&#58998;" d="M511.936 843.712c-184.384 0-333.824-133.696-333.824-334.784 0-202.112 165.888-280.576 258.176-406.144 75.136-102.208 75.712-178.496 75.712-178.496s2.368 75.904 75.712 178.56c89.728 125.568 258.176 209.856 258.176 406.144-0.064 201.024-149.504 334.72-333.952 334.72v0zM511.936 303.68c-113.088 0-204.736 91.968-204.736 205.312 0 113.408 91.648 205.312 204.736 205.312 113.088 0 204.736-91.968 204.736-205.312 0.064-113.408-91.584-205.312-204.736-205.312v0zM511.936 303.68z"  horiz-adv-x="1024" />

    
    <glyph glyph-name="dingwei5" unicode="&#58996;" d="M515.417331-82.654232c-58.611909-0.358157-352.582197 443.447694-352.582197 591.852676 0 196.158588 157.851121 355.080088 352.582197 355.080088 194.685028 0 352.537172-158.920476 352.537172-355.080088C867.954503 362.747977 573.099055-83.01239 515.417331-82.654232zM515.417331 824.013479c-172.369789 0-312.049039-140.391471-312.049039-313.38957 0-131.126456 260.158205-533.059642 312.049039-532.87954 51.045583-0.181125 312.048015 403.532613 312.048015 532.87954C827.465346 683.622008 687.744141 824.013479 515.417331 824.013479zM515.417331 361.148549c-81.151251 0-146.938584 66.276473-146.938584 148.049894 0 81.598436 65.787332 147.874909 146.938584 147.874909 81.108273 0 146.895605-66.276473 146.895605-147.874909C662.312936 427.425022 596.52458 361.148549 515.417331 361.148549zM515.417331 604.517369c-51.715849 0-93.622284-42.045605-93.622284-93.89346 0-52.022841 41.907459-94.069469 93.622284-94.069469 51.66673 0 93.580329 42.045605 93.580329 94.069469C608.99766 562.471764 567.084061 604.517369 515.417331 604.517369z"  horiz-adv-x="1024" />

    
    <glyph glyph-name="dingwei-copy" unicode="&#58881;" d="M944.062 552.315c-100.921 248.093-375.472 363.841-613.227 258.531s-348.682-391.796-247.76-639.888c46.178-113.518 130.249-202.55 235.524-252.898 14.987-7.167 32.705-0.301 39.574 15.339 6.87 15.638 0.288 34.128-14.699 41.296-91.869 43.937-165.139 121.532-205.442 220.607-88.036 216.42 8.727 466.336 216.13 558.202 207.405 91.866 446.906-9.107 534.943-225.53s-8.729-466.336-216.131-558.201c-15.175-6.722-22.257-25.008-15.815-40.844 6.442-15.836 23.966-23.225 39.143-16.501 237.755 105.307 348.682 391.796 247.76 639.887zM503.498 662.871c-131.891 0-238.811-114.621-238.811-256.015s218.861-402.063 218.861-402.063c11.020-13.601 29.020-13.565 39.901 0 0 0 218.861 260.671 218.861 402.063s-106.919 256.015-238.811 256.015zM503.498 257.516c-76.937 0-139.308 66.862-139.308 149.341s62.368 149.341 139.308 149.341 139.308-66.862 139.308-149.341-62.369-149.341-139.308-149.341z"  horiz-adv-x="1024" />

    
    <glyph glyph-name="dingwei6" unicode="&#58912;" d="M511.930204 896C304.636587 896 136.533333 738.217131 136.533333 543.584413 136.533333 348.984457 511.930204-128 511.930204-128 511.930204-128 887.466667 348.984457 887.466667 543.584413 887.466667 738.217131 719.293617 896 511.930204 896M511.967567 384C436.598572 384 375.466667 445.106736 375.466667 520.517113 375.466667 595.927497 436.598572 657.066667 511.967567 657.066667 587.466288 657.066667 648.533333 595.927497 648.533333 520.517113 648.533333 445.106736 587.466288 384 511.967567 384"  horiz-adv-x="1024" />

    
    <glyph glyph-name="dingwei-copy1" unicode="&#58882;" d="M919.813 341.812h-44.81c-19.35-168.159-152.698-301.395-320.815-320.758v-44.867c0-23.302-18.886-42.188-42.188-42.188s-42.188 18.886-42.188 42.188v44.867c-168.131 19.364-301.465 152.599-320.828 320.758h-44.797c-23.302 0-42.188 18.886-42.188 42.188 0 23.295 18.886 42.188 42.188 42.188h44.881c19.364 168.125 152.586 301.465 320.744 320.801v44.825c0 23.295 18.886 42.188 42.188 42.188s42.188-18.892 42.188-42.188v-44.881c168.117-19.364 301.465-152.592 320.815-320.744h44.81c23.302 0 42.188-18.9 42.188-42.188 0-23.302-18.886-42.188-42.188-42.188M708.875 426.188h80.873c-18.323 121.465-114.145 217.301-235.561 235.645v-80.958c0-23.302-18.886-42.188-42.188-42.188s-42.188 18.886-42.188 42.188v80.873c-121.465-18.323-217.308-114.145-235.645-235.561h80.958c23.302 0 42.188-18.9 42.188-42.188 0-23.302-18.886-42.188-42.188-42.188h-80.873c18.323-121.479 114.145-217.308 235.561-235.631v80.944c0 23.294 18.886 42.188 42.188 42.188s42.188-18.9 42.188-42.188v-80.944c121.416 18.317 217.238 114.145 235.561 235.631h-80.873c-23.302 0-42.188 18.886-42.188 42.188 0 23.288 18.886 42.188 42.188 42.188M512 341.812c-23.302 0-42.188 18.886-42.188 42.188 0 23.295 18.886 42.188 42.188 42.188s42.188-18.9 42.188-42.188c0-23.302-18.886-42.188-42.188-42.188z"  horiz-adv-x="1024" />

    
    <glyph glyph-name="dingwei7" unicode="&#58914;" d="M247.122819 422.184671c67.347874-166.273954 238.124376-294.960849 245.3745-302.31228l18.981307-19.258623 19.003819 19.23304c7.088442 7.17747 174.134992 131.618667 243.019873 296.429293 15.31787 31.479969 24.674982 65.205071 27.823696 100.248192 1.154289 10.078543 1.687432 18.454304 1.687432 26.334785 0 4.956895-0.251733 9.188266-0.777713 12.856819-3.261277 74.553996-34.712593 144.117328-88.654132 196.057281-54.481845 52.444443-126.181841 81.328283-201.901383 81.328283-154.506956 0-281.622052-119.913067-290.411229-273.432533-0.877997-4.53427-1.279133-9.884115-1.279133-16.809851 0-13.243629 1.26583-27.03268 3.880377-42.128493C227.84066 473.599667 235.661789 447.180971 247.122819 422.184671zM273.643845 549.390841l0.660032 2.431376 0.13917 2.89391c6.229888 126.179794 110.438275 225.021963 237.239216 225.021963 128.174218 0 232.411257-100.007715 237.302661-227.680513l0.084934-1.930979 0.322341-1.821485c0.010233-0.059352 0.26299-1.49198 0.26299-5.446036 0-5.884011-0.441045-12.422937-1.38044-20.577664l-0.067538-0.689708c-2.563382-28.901237-10.296507-56.678884-22.985504-82.57467l-0.677429-1.49198c-51.551096-123.874285-167.368892-210.618928-213.023698-260.06713C465.259978 227.668489 346.870614 317.614034 296.36943 442.752102l-0.515746 1.193175c-9.511631 20.615527-15.977903 42.421158-19.22076 64.813145l-0.119727 0.762363c-2.095731 12.015661-3.157923 23.233144-3.157923 33.339316C273.35425 547.031097 273.567098 548.888398 273.643845 549.390841zM789.713534 141.435499c-2.806929 21.36868-21.13639 37.917588-43.259246 37.917588l-97.057523 0-16.585747-41.46539 118.982882 0 63.74072-131.636063L208.463334 6.251633l63.74072 131.636063 118.983905 0-16.58677 41.46539-97.052406 0c-22.12388 0-40.453341-16.548908-43.261293-21.330818L144.298965 12.975778l0-21.145599c0-24.058952 19.573801-43.633776 43.6348-43.633776l648.134517 0c24.060999 0 43.63173 19.574824 43.63173 43.633776l0 4.557806L789.713534 141.435499zM512.000512 399.796778c67.677379 0 122.733299 55.056943 122.733299 122.732276 0 67.677379-55.056943 122.734322-122.733299 122.734322-67.678402 0-122.736369-55.057967-122.736369-122.734322C389.26312 454.853721 444.32211 399.796778 512.000512 399.796778zM512.000512 591.901027c38.251186 0 69.37095-31.119765 69.37095-69.37402 0-38.250162-31.119765-69.368904-69.37095-69.368904-38.252209 0-69.372997 31.118741-69.372997 69.368904C442.627515 560.782286 473.748303 591.901027 512.000512 591.901027z"  horiz-adv-x="1024" />

    
    <glyph glyph-name="dingwei8" unicode="&#58961;" d="M511.296 151.744 510.144 151.744c-38.528 0-206.976 196.8-250.112 268.672-67.52 112.512-81.792 280.256 21.248 383.36C371.008 893.504 504.256 896 509.888 896l0.064 0c18.048 0 153.28-2.752 231.552-93.696 86.4-100.416 94.656-257.408 20.032-381.888C718.272 348.544 549.76 151.744 511.296 151.744L511.296 151.744zM512.384 843.968c-3.072 0-119.808-2.56-194.24-76.992C234.752 683.584 249.024 540.032 304.64 447.232c50.624-84.288 169.024-208.32 206.08-239.104 37.12 30.72 155.52 154.816 206.144 239.104 62.144 103.744 55.872 238.784-14.848 321.152C637.76 843.072 517.504 843.968 512.384 843.968L512.384 843.968zM512.384 843.968M508.864 464.192c-79.424 0-144.064 64.64-144.064 144 0 79.424 64.64 144.064 144.064 144.064 79.424 0 144-64.64 144-144.064C652.864 528.896 588.224 464.192 508.864 464.192L508.864 464.192zM508.864 700.224c-50.752 0-91.968-41.28-91.968-91.968 0-50.688 41.216-91.904 91.968-91.904 50.624 0 91.904 41.28 91.904 91.904C600.768 658.944 559.488 700.224 508.864 700.224L508.864 700.224zM508.864 700.224M969.728 306.752c-1.344 2.176-2.624 4.032-128.128 146.304l-39.104-34.432c43.52-49.28 107.776-122.112 121.152-137.408 6.016-36.096 31.36-225.6 42.112-318.144-8.128 5.632-16.768 11.52-25.024 17.152-86.272 59.008-124.608 84.352-144.512 95.232L796.224 326.464l-52.032 0 0-253.248c-27.776-14.528-84.992-48.768-209.664-130.24l0 151.488L482.496 94.464l0-146.752c-130.112 84.864-184.512 116.864-209.088 129.024L273.408 326.464 221.312 326.464l0-254.464c-21.44-12.608-60.288-38.656-137.92-91.52-8.384-5.888-16.96-11.648-25.152-17.28 10.816 92.096 36.032 280.896 42.176 317.888 16.32 18.816 78.656 89.536 121.152 137.664L182.592 453.312C56.832 310.848 55.68 308.992 54.272 306.88c-11.2-17.472-52.864-398.144-52.288-400.384l2.56-11.008 9.344-5.76c15.36-9.28 15.296-9.344 98.88 47.616 41.216 28.096 114.368 78.272 139.264 92.224 31.68-16.128 143.808-87.104 243.84-153.024l6.08-3.904L521.28-128l6.912 4.48c100.032 65.984 212.16 136.896 243.776 153.152 24.896-14.144 98.112-64.128 139.392-92.352 83.52-56.896 83.52-56.896 98.88-47.616l9.344 5.888 2.496 10.624C1022.72-91.52 980.992 289.28 969.728 306.752L969.728 306.752zM969.728 306.752"  horiz-adv-x="1024" />

    
    <glyph glyph-name="dingwei9" unicode="&#59614;" d="M889.036145 433.800219C866.780259 604.620723 731.500203 739.925339 560.678676 762.178155L560.678676 831.718975 461.197964 831.718975l0-69.540819C290.376437 739.925339 155.095357 604.620723 132.839471 433.800219L63.279209 433.800219l0-99.480712 69.560262 0c22.255887-170.81948 157.535943-306.124096 328.35747-328.377936l0-69.540819 99.480712 0 0 69.540819c170.821527 22.252817 306.101583 157.557432 328.35747 328.377936l69.560262 0L958.595384 433.800219 889.036145 433.800219zM510.937808 102.202962c-155.667386 0-281.857413 126.189004-281.857413 281.857413S355.270423 665.916764 510.937808 665.916764s281.857413-126.189004 281.857413-281.857413S666.606217 102.202962 510.937808 102.202962zM510.937808 533.281955c-82.408895 0-149.22158-66.807568-149.22158-149.22158S428.529937 234.838795 510.937808 234.838795c82.414011 0 149.22158 66.807568 149.22158 149.22158S593.351819 533.281955 510.937808 533.281955z"  horiz-adv-x="1024" />

    
    <glyph glyph-name="dingwei10" unicode="&#59027;" d="M515.417331-82.654232c-58.611909-0.358157-352.582197 443.447694-352.582197 591.852676 0 196.158588 157.851121 355.080088 352.582197 355.080088 194.685028 0 352.537172-158.920476 352.537172-355.080088C867.954503 362.747977 573.099055-83.01239 515.417331-82.654232zM515.417331 824.013479c-172.369789 0-312.049039-140.391471-312.049039-313.38957 0-131.126456 260.158205-533.059642 312.049039-532.87954 51.045583-0.181125 312.048015 403.532613 312.048015 532.87954C827.465346 683.622008 687.744141 824.013479 515.417331 824.013479zM515.417331 361.148549c-81.151251 0-146.938584 66.276473-146.938584 148.049894 0 81.598436 65.787332 147.874909 146.938584 147.874909 81.108273 0 146.895605-66.276473 146.895605-147.874909C662.312936 427.425022 596.52458 361.148549 515.417331 361.148549zM515.417331 604.517369c-51.715849 0-93.622284-42.045605-93.622284-93.89346 0-52.022841 41.907459-94.069469 93.622284-94.069469 51.66673 0 93.580329 42.045605 93.580329 94.069469C608.99766 562.471764 567.084061 604.517369 515.417331 604.517369z"  horiz-adv-x="1024" />

    
    <glyph glyph-name="dingwei11" unicode="&#58956;" d="M64.501036 439.891961 197.966771 339.843314 791.684934 663.538601 344.19211 216.271928 344.19211-63.292256 511.992837 104.435817 735.732597-63.292256 959.498964 831.292256Z"  horiz-adv-x="1024" />

    
    <glyph glyph-name="dingwei-copy2" unicode="&#58883;" d="M671.877 717.928c0 82.413-67.824 149.231-151.562 149.231-83.699 0-151.561-66.818-151.561-149.231 0-27.218 7.534-52.641 20.439-74.613h-0.163l128.871-256.384c0.442-0.877 1.351-1.48 2.398-1.48s1.958 0.6 2.398 1.479l128.936 256.384h-0.186c12.951 21.972 20.426 47.392 20.426 74.613M520.331 643.331c-41.842 0-75.78 33.412-75.78 74.619 0 41.183 33.938 74.612 75.78 74.612 41.887 0 75.781-33.428 75.781-74.612 0.001-41.205-33.894-74.619-75.781-74.619z"  horiz-adv-x="1024" />

    
    <glyph glyph-name="location" unicode="&#58979;" d="M512 876.9c-207.3 0-375.3-168-375.3-375.3 0-295.6 375.3-615.5 375.3-615.5s375.3 333.5 375.3 615.5c0 207.3-168 375.3-375.3 375.3zM512 296.8c-114.3 0-206.9 92.7-206.9 206.9s92.6 207 206.9 207 206.9-92.7 206.9-207-92.6-206.9-206.9-206.9z"  horiz-adv-x="1024" />

    
    <glyph glyph-name="dingwei12" unicode="&#59019;" d="M512-128c0 0-357.960471 463.651827-357.960471 662.359752 0 198.707926 160.274706 359.800359 357.960471 359.800359 197.685766 0 357.960471-161.092434 357.960471-359.800359C869.960471 335.651827 512-128 512-128zM508.320224 687.479337c-84.123777 0-152.404073-68.586944-152.404073-153.119585 0-84.532641 68.178079-153.119585 152.404073-153.119585 84.123777 0 152.404073 68.586944 152.404073 153.119585C660.724296 618.99461 592.444001 687.479337 508.320224 687.479337z"  horiz-adv-x="1024" />

    
    <glyph glyph-name="icon104" unicode="&#58981;" d="M512 835.573769c-199.336978 0-360.926236-161.589258-360.926236-360.926236S433.920714-29.757488 433.920714-29.757488c43.123147-50.331315 113.696482-50.600445 156.393933 0.26913 0 0 282.612613 304.798914 282.612613 504.135892S711.336978 835.573769 512 835.573769L512 835.573769zM512 319.216531c-92.224448 0-166.964686 74.747401-166.964686 166.964686 0 92.217285 74.740238 166.964686 166.964686 166.964686 92.217285 0 166.964686-74.747401 166.964686-166.964686C678.964686 393.963932 604.218308 319.216531 512 319.216531L512 319.216531zM512 319.216531"  horiz-adv-x="1024" />

    
    <glyph glyph-name="dingwei31" unicode="&#58907;" d="M927.454442 405.760959c-0.138067 0-0.271341-0.008629-0.407491-0.011506l-53.708225 0C863.412255 589.603476 717.183521 737.216719 533.917243 749.324464l0 49.918082c0 12.057888-9.774981 21.832869-21.833828 21.832869-12.056929 0-21.832869-9.774981-21.832869-21.832869l0-49.614142c-185.811895-9.691566-334.766502-158.592479-344.54436-344.381363l-48.970787 0c-12.057888 0-21.832869-9.774981-21.832869-21.832869 0-12.056929 9.774022-21.832869 21.832869-21.832869l49.252674 0c12.042547-183.571176 160.04027-330.02427 344.268225-339.629543l0-53.179925 0.0163 0c0-0.069034-0.005753-0.139026-0.005753-0.20806 0-12.057888 9.774981-21.832869 21.832869-21.832869 12.058846 0 21.832869 9.774981 21.832869 21.832869 0 0.137109-0.00767 0.271341-0.010547 0.406532l0 53.284434c182.017918 12.028165 327.502622 157.722846 339.198082 339.829933l54.123386 0 0 0.017258c0.069034 0 0.139985-0.005753 0.209019-0.005753 12.056929 0 21.832869 9.773064 21.832869 21.830951C949.286352 395.986936 939.511371 405.760959 927.454442 405.760959zM490.250547 676.504449l0-51.065768C372.909543 616.125843 279.298876 522.565993 269.902622 405.248l-51.076315 0C228.419116 550.715446 344.758172 666.997933 490.250547 676.504449zM490.2563 95.076674C346.347865 104.477723 230.956105 218.339236 219.171476 361.582262l51.153019 0c11.507536-115.08782 104.176659-206.254502 219.931805-215.43982L490.2563 95.076674 490.2563 95.076674zM512.089169 274.490487c-12.057888 0-21.832869-9.774981-21.832869-21.832869l0-64.084375c-92.393948 8.923566-166.225498 81.290067-177.398412 173.007101l67.762337 0 0 0.017258c0.069993 0 0.138067-0.005753 0.20806-0.005753 12.057888 0 21.832869 9.773064 21.832869 21.832869 0 12.056929-9.774022 21.83191-21.832869 21.83191-0.137109 0-0.271341-0.00767-0.407491-0.010547l-68.085453 0c9.157513 93.958712 83.934442 168.680989 177.916165 177.75988l0-67.647281 0.015341 0c0-0.069993-0.004794-0.138067-0.004794-0.20806 0-12.057888 9.774981-21.832869 21.832869-21.832869 12.058846 0 21.832869 9.774981 21.832869 21.832869 0 0.137109-0.00767 0.271341-0.010547 0.407491l0 66.891745c91.415011-11.217019 163.573453-84.679431 172.777948-176.699446l-63.334592 0c-12.057888 0-21.832869-9.774022-21.832869-21.832869 0-12.05597 9.774022-21.832869 21.832869-21.832869l62.912719 0c-10.762547-90.258697-82.185588-161.885963-172.35224-172.953408l0 63.526352C533.922996 264.715506 524.148015 274.490487 512.089169 274.490487zM533.922996 95.449648l0 51.146307c113.535521 11.438502 203.750112 101.863071 214.871251 215.490637l51.153019 0C788.529858 220.306697 675.621393 107.194966 533.922996 95.449648zM749.12791 405.750412c-9.485423 115.380255-100.427745 207.677363-215.210667 219.236674l0 51.14439c142.944839-11.845034 256.584869-126.851356 266.299446-270.382022L749.12791 405.749453 749.12791 405.750412z"  horiz-adv-x="1024" />

    
    <glyph glyph-name="dingwei13" unicode="&#58960;" d="M460.019115-20.656203c-49.859571 54.099129-301.952076 324.920184-301.952076 500.361939 0 194.358593 158.121274 352.478843 352.479866 352.478843 194.356546 0 352.478843-158.12025 352.478844-352.478843 0-175.09076-251.393587-444.889533-301.825187-500.20128-51.324946-54.29151-51.324946-54.29151-101.181447-0.160659z m50.52779 789.044804c-159.174256 0-288.683888-129.508609-288.683888-288.681842 0-150.368706 178.344874-342.272387 284.888446-456.946127l3.795442-4.050246 3.923356 4.208859c106.508779 114.737184 284.790208 306.736033 284.790208 456.786491-0.031722 159.173233-129.540332 288.682865-288.713564 288.682865z m0-463.61399c-95.282087 0-172.795485 77.514421-172.795484 172.794461 0 95.249341 77.513398 172.763762 172.795484 172.763762 95.281063 0 172.795485-77.514421 172.795485-172.763762 0-95.313809-77.514421-172.794461-172.795485-172.794461z m0 281.761222c-60.096726 0-108.99746-48.869011-108.99746-108.966761 0-60.096726 48.900733-108.99746 108.99746-108.99746 60.09468 0 108.996436 48.900733 108.996437 108.99746 0 60.09775-48.901757 108.966761-108.996437 108.966761z"  horiz-adv-x="1024" />

    
    <glyph glyph-name="slice" unicode="&#58903;" d="M787.072 102.144s11.349-7.424 15.445-13.056c5.096-6.981 8.154-15.732 8.154-25.197 0-1.796-0.11-3.567-0.324-5.305-2.547-18.962-17.407-34.010-36.264-36.839-6.382-0.969-13.337-0.329-19.779 1.847-2.475 0.853-3.029 1.152-5.376 2.261l-236.928 118.443-239.573-119.68c-2.432-0.896-2.987-1.195-5.504-1.877-3.265-0.897-7.015-1.412-10.885-1.412-23.564 0-42.667 19.103-42.667 42.667 0 16.597 9.477 30.981 23.315 38.036l275.314 137.669 275.072-137.557zM896 341.333h-768c-0.017-0-0.037-0-0.057-0-12.39 0-23.544 5.297-31.318 13.751-6.982 7.644-11.242 17.821-11.242 28.993 0 6.173 1.301 12.043 3.643 17.349 6.713 14.853 21.647 25.202 39.002 25.24l771.513-0.128s3.883-0.427 6.912-1.195c4.565-1.152 8.96-3.072 12.885-5.632 11.644-7.819 19.205-20.937 19.205-35.82 0-7.394-1.866-14.352-5.152-20.429-6.489-11.788-18.396-20.182-32.368-21.825-1.098-0.219-1.909-0.176-5.023-0.304zM771.541 725.205c6.827-0.811 13.269-2.731 19.157-6.4 4.096-2.603 7.765-5.888 10.795-9.685 5.758-7.193 9.24-16.426 9.24-26.472 0-14.565-7.32-27.421-18.482-35.088-2.278-1.587-2.875-1.8-5.179-3.038l-275.072-137.557-277.632 138.923c-8.408 5.161-14.885 12.757-18.528 21.799 0.318-1.901-2.041 5.101-2.461 12.62 0.148-2.21-0.010-0.099-0.010 2.050 0 21.368 15.568 39.1 35.98 42.473 6.949 1.058 13.904 0.418 20.346-1.758 2.475-0.853 3.029-1.152 5.376-2.261l236.928-118.443 239.573 119.68c2.731 1.024 5.461 1.963 8.363 2.517 2.517 0.469 3.2 0.469 5.76 0.725 2.901 0.043 2.901 0.043 5.845-0.085z"  horiz-adv-x="1024" />

    
    <glyph glyph-name="dingwei14" unicode="&#58897;" d="M504.624 896C303.856 896 141.088 725.424 141.088 515.024 141.088 304.608 511.664-128 511.664-128s356.48 432.608 356.48 643.024C868.144 725.424 705.392 896 504.624 896z m6.624-987.6S162.512 315.52 162.512 513.536c0 198.016 153.168 358.528 342.096 358.528 188.944 0 342.112-160.528 342.112-358.528 0-198.016-335.472-605.136-335.472-605.136zM507.104 718.768c-101.584 0-183.936-82.352-183.936-183.952 0-101.584 82.352-183.936 183.936-183.936s183.952 82.352 183.952 183.936c0 101.6-82.352 183.952-183.952 183.952z m0-341.696c-87.12 0-157.76 70.624-157.76 157.76 0 87.12 70.624 157.76 157.76 157.76s157.76-70.624 157.76-157.76-70.624-157.76-157.76-157.76z"  horiz-adv-x="1024" />

    
    <glyph glyph-name="weibiaoti-" unicode="&#58895;" d="M484.398545 820.922182c107.147636-0.651636 188.136727-37.981091 251.997091-111.057455 64.930909-74.286545 91.880727-161.559273 79.220364-259.490909-5.259636-40.773818-21.550545-78.987636-38.4-116.503273-51.805091-115.386182-119.668364-221.323636-191.069091-325.12-16.663273-24.250182-33.931636-48.081455-50.734545-72.331636-23.133091-33.419636-59.578182-33.838545-83.316364-0.884364-76.381091 106.030545-149.178182 214.295273-209.594182 330.472728-26.437818 50.827636-50.548364 102.679273-65.768727 158.301091-15.220364 55.808-10.519273 111.010909 6.097454 165.003636a325.492364 325.492364 0 0 0 125.905455 173.661091c38.4 27.229091 80.709818 45.847273 127.534545 52.782545 19.037091 2.839273 38.353455 4.142545 48.128 5.166546z m8.145455-50.362182c-17.547636-2.048-36.072727-3.211636-54.178909-6.749091a245.434182 245.434182 0 0 1-40.820364-12.8c-68.328727-26.112-117.527273-73.262545-150.109091-138.24-13.730909-27.554909-21.364364-56.832-26.344727-87.365818-4.421818-26.996364-4.887273-53.713455 3.304727-79.173818 11.776-36.770909 23.738182-74.053818 41.006546-108.357818a2384.058182 2384.058182 0 0 1 98.443636-177.710546c38.586182-62.650182 81.547636-122.554182 122.693818-183.528727 4.654545-6.888727 8.843636-7.214545 14.010182 0.372363 33.838545 50.082909 68.747636 99.467636 101.841455 150.062546 52.224 79.825455 100.165818 162.071273 137.169454 250.321454 13.172364 31.464727 25.367273 63.627636 28.113455 97.838546a253.021091 253.021091 0 0 1-25.786182 131.863273c-50.408727 103.144727-133.771636 156.672-249.344 163.467636zM492.590545 368.64c-72.750545-1.815273-137.681455 61.952-136.704 141.777455 0.930909 77.591273 61.765818 140.288 138.333091 139.264 77.265455-0.977455 136.890182-60.276364 136.890182-140.8 0.046545-79.034182-60.090182-140.939636-138.519273-140.241455z m81.966546 139.822545c0.093091 45.056-36.957091 83.316364-80.896 83.642182-43.473455 0.325818-82.711273-38.772364-81.733818-83.083636 0.977455-45.056 36.910545-83.269818 81.826909-83.130182 43.287273 0.139636 80.756364 38.353455 80.802909 82.571636z"  horiz-adv-x="1024" />

    
    <glyph glyph-name="dingwei15" unicode="&#58899;" d="M512.79-107.434c0 0-356.822 455.293-356.822 650.463 0 195.136 159.771 353.334 356.822 353.334 197.034 0 356.795-158.179 356.795-353.334-0.002-195.177-356.795-650.463-356.795-650.463v0zM509.088 693.392c-83.867 0-151.883-67.339-151.883-150.439 0-83.054 68.005-150.395 151.883-150.395 83.913 0 151.899 67.339 151.899 150.395 0 83.077-67.981 150.439-151.899 150.439v0z"  horiz-adv-x="1024" />

    
    <glyph glyph-name="dingwei16" unicode="&#58626;" d="M512 287.267c-112.952 0-204.845 91.893-204.845 204.835s91.893 204.845 204.845 204.845 204.845-91.893 204.845-204.845-91.893-204.835-204.845-204.835zM512 647.613c-85.743 0-155.542-69.759-155.542-155.542s69.759-155.542 155.542-155.542 155.542 69.759 155.542 155.542-69.8 155.532-155.542 155.532zM512-109.12c-0.005-0-0.011-0-0.017-0-13.62 0-24.662 11.041-24.662 24.662 0 6.613 2.603 12.619 6.84 17.047 0.882 0.922 89.571 94.227 178.691 212.173 114.364 151.347 174.811 271.462 174.811 347.34 0 185.095-150.579 335.644-335.644 335.644s-335.644-150.579-335.644-335.644c0-62.053 40.349-185.464 232.566-420.926 3.465-4.216 5.565-9.668 5.565-15.611 0-13.628-11.048-24.676-24.676-24.676-7.686 0-14.55 3.514-19.076 9.022-161.788 198.103-243.775 350.218-243.775 452.19 0 212.305 172.724 385.018 385.018 385.018s385.018-172.713 385.018-385.018c0-73.524-45.977-177.881-136.652-310.174-94.502-137.87-200.312-251.733-230.499-283.394-4.484-4.719-10.807-7.654-17.815-7.654-0.018 0-0.036 0-0.054 0z"  horiz-adv-x="1024" />

    
    <glyph glyph-name="dingwei17" unicode="&#58885;" d="M512 896C300.144 896 128.454 755.154 128.454 519.526c0-235.62 222.595-308.371 383.546-647.526 162.67 340.942 383.546 421.234 383.546 647.526S723.817 896 512 896z m0-576.048c-118.255 0-191.773 76.402-191.773 191.78S387.977 703.506 512 703.506c124.031 0 191.773-73.51 191.773-191.774S630.263 319.96 512 319.96z"  horiz-adv-x="1024" />

    
    <glyph glyph-name="dingwei18" unicode="&#58963;" d="M876.584887 693.667676l-0.4608-0.3584a28.876794 28.876794 0 0 1-22.712315 9.748478c-15.697917-0.50176-28.006394-13.158397-27.484155-28.272635l0.34816-2.539519a26.726395 26.726395 0 0 1 7.106559-17.203197 371.148726 371.148726 0 0 0 51.404789-189.030362 371.343286 371.343286 0 0 0-85.247983-237.311952l-0.266239-0.24576-287.252423-287.252423L224.778297 228.454329c-0.4096 0.4096-0.8192 0.78848-1.249279 1.167359a371.322806 371.322806 0 0 0-84.500463 236.390353c0 205.936599 166.942687 372.889525 372.879285 372.889526a371.158966 371.158966 0 0 0 185.077723-49.100791c5.109759-3.942399 11.653118-6.225919 18.708476-6.000638 15.697917 0.512 28.006394 13.168637 27.484155 28.282874l-0.34816 2.529279a27.084795 27.084795 0 0 1-11.939838 21.401596l0.03072 0.02048-0.54272 0.31744a28.712954 28.712954 0 0 1-2.559999 1.4848A427.868074 427.868074 0 0 1 511.7952 895.999795C274.391088 895.999795 81.920086 703.539034 81.920086 466.124681a428.083114 428.083114 0 0 1 96.255981-271.093706h0.86016c1.3312-2.559999 3.051519-4.966399 5.201919-7.116798L491.755524-119.603202a28.671994 28.671994 0 0 1 40.540152 0l307.517378 307.507139c2.4064 2.41664 4.300799 5.150719 5.672959 8.069118h0.7168A428.083114 428.083114 0 0 1 941.670314 466.124681c0 83.558383-23.848955 161.556448-65.095667 227.542995z m-364.646327-26.705915c-111.001578 0-200.98044-89.978862-200.98044-200.98044 0-111.001578 89.978862-200.98044 200.98044-200.98044 111.001578 0 200.98044 89.989102 200.98044 200.98044 0 111.001578-89.978862 200.98044-200.98044 200.98044z m-0.47104-343.787451c-79.134704 0-143.278051 64.153587-143.278051 143.278051 0 79.134704 64.143347 143.278051 143.278051 143.278051 79.124464 0 143.278051-64.143347 143.278051-143.278051 0-79.124464-64.153587-143.278051-143.278051-143.278051z"  horiz-adv-x="1024" />

    
    <glyph glyph-name="dingwei19" unicode="&#58701;" d="M513.481-91.327h-0.002c-7.82 0-14.73 3.891-18.9 9.844l-282.89 407.904a22.876 22.876 0 0 0-3.611 8.289c-21.787 33.718-38.551 81.727-44.236 133.074 3.652-34.25-2.092 2.243-2.092 39.212 0 193.95 157.789 351.74 351.74 351.74 44.994 0 90.13-10.866 134.153-32.298 40.076-19.51 78.612-47.903 111.445-82.106 31.99-33.326 58.59-72.133 76.925-112.226 19.11-41.786 29.207-85.038 29.206-125.08 0-36.978-5.746-73.47-17.074-108.462-7.824-24.145-18.637-48.223-31.274-69.636a22.8 22.8 0 0 0-0.91-1.421L532.432-81.406c-4.22-6.027-11.131-9.92-18.952-9.921z m-263.418 443.35l263.416-379.819L777.57 353.077c10.765 18.367 19.988 38.99 26.698 59.694 9.84 30.391 14.831 62.105 14.831 94.253 0.004 67.741-34.868 144.513-93.282 205.366-61.138 63.692-138.526 100.222-212.325 100.222-168.518 0-305.616-137.099-305.616-305.616 0-32.139 4.99-63.853 14.833-94.259 14.279-43.231 36.452-80.427 65.044-111.644z m546.947-11.378z m-284.134-17.497c-90.903 0-164.856 73.954-164.856 164.857s73.953 164.857 164.856 164.857c90.904 0 164.856-73.953 164.856-164.857S603.78 323.148 512.876 323.148z m0 283.592c-65.47 0-118.733-53.264-118.733-118.733s53.264-118.734 118.733-118.734 118.733 53.264 118.733 118.734S578.346 606.74 512.876 606.74z"  horiz-adv-x="1024" />

    
    <glyph glyph-name="dingwei20" unicode="&#58777;" d="M513.481-91.327h-0.002c-7.82 0-14.73 3.891-18.9 9.844l-282.89 407.904c-2.225 3.15-3.687 6.985-4.040 11.136-21.358 30.871-38.122 78.88-43.807 130.227 3.652-34.25-2.092 2.243-2.092 39.212 0 193.95 157.789 351.74 351.74 351.74 44.994 0 90.13-10.866 134.153-32.298 40.076-19.51 78.612-47.903 111.445-82.106 31.99-33.326 58.59-72.133 76.925-112.226 19.11-41.786 29.207-85.038 29.206-125.080 0-36.978-5.746-73.47-17.074-108.462-7.824-24.145-18.637-48.223-31.274-69.636-1.595-2.676-3.624-4.92-6.016-6.705l-278.423-403.629c-4.22-6.027-11.131-9.92-18.952-9.921zM250.063 352.023l263.416-379.819 264.091 380.873c10.765 18.367 19.988 38.99 26.698 59.694 9.84 30.391 14.831 62.105 14.831 94.253 0.004 67.741-34.868 144.513-93.282 205.366-61.138 63.692-138.526 100.222-212.325 100.222-168.518 0-305.616-137.099-305.616-305.616 0-32.139 4.99-63.853 14.833-94.259 14.279-43.231 36.452-80.427 65.044-111.644zM797.010 340.645zM512.876 323.148c-90.903 0-164.856 73.954-164.856 164.857s73.953 164.857 164.856 164.857c90.904 0 164.856-73.953 164.856-164.857s-73.952-164.857-164.856-164.857zM512.876 606.74c-65.47 0-118.733-53.264-118.733-118.733s53.264-118.734 118.733-118.734 118.733 53.264 118.733 118.734-53.263 118.733-118.733 118.733z"  horiz-adv-x="1024" />

    
    <glyph glyph-name="dingwei-copy3" unicode="&#58920;" d="M512 92.59c12.329 0 268.928 385.992 268.928 534.482 0 148.49-120.438 268.928-268.928 268.928s-268.928-120.438-268.928-268.928 256.599-534.482 268.928-534.482zM384.87 627.072c0 70.195 56.935 127.13 127.13 127.13 70.2 0 127.13-56.935 127.13-127.13 0-70.2-56.935-127.13-127.13-127.13s-127.13 56.93-127.13 127.13zM706.391 159.34c58.48-19.672 95.222-48.088 95.222-79.688 0-59.387-129.7-107.546-289.613-107.546s-289.613 48.154-289.613 107.546c0 31.6 36.741 60.011 95.222 79.688-119.112-26.43-199.475-76.386-199.475-133.658 0-84.859 176.394-153.682 393.866-153.682 217.472 0 393.866 68.823 393.866 153.687 0 57.267-80.363 107.223-199.475 133.653z"  horiz-adv-x="1024" />

    
    <glyph glyph-name="dingwei21" unicode="&#58940;" d="M862.014488 284.209895c-58.009852-103.847505-173.335047-322.581566-285.809096-390.862854a108.416649 108.416649 0 0 0-28.109374-14.694367c-1.462126-0.511744-2.887699-0.877276-4.349825-1.352467a107.978011 107.978011 0 0 0-31.837795-5.263654l-0.10966-0.036553H511.725632c-11.660455 0-22.662954 2.302849-33.226815 5.665739-1.169701 0.402085-2.375955 0.69451-3.545656 1.133147a108.635968 108.635968 0 0 0-29.242522 15.790962c-110.646391 69.450989-223.924609 284.456629-281.971014 385.855072a412.904405 412.904405 0 0 0-54.427643 205.757693c0 226.117798 180.207039 409.468409 402.486756 409.468409 222.31627 0 402.52331-183.35061 402.52331-409.468409a413.050618 413.050618 0 0 0-52.30756-201.992718zM511.725632 639.616192a146.212608 146.212608 0 1 1 0-292.425216 146.212608 146.212608 0 0 1 0 292.425216z"  horiz-adv-x="1024" />

    
    <glyph glyph-name="dingwei22" unicode="&#58886;" d="M512.86016 788.48c94.91456 0 174.53056-33.49504 230.27712-96.93184 56.79104-64.62464 82.44224-155.4432 70.3488-249.22112-19.0464-147.1488-213.68832-360.38656-300.26752-443.40224-84.60288 82.83136-276.89984 297.20576-301.2608 445.30688-14.70464 89.53856 8.25344 177.74592 62.88384 242.14528C330.73152 752.2304 415.27296 788.48 512.86016 788.48z m0 56.32c-244.82816 0-391.58784-196.00384-356.4544-409.6512C189.73696 232.11008 481.72032-52.79744 512.86016-76.8c31.16032 24.00256 330.02496 307.9168 356.48512 511.9488C896.86016 648.79616 756.45952 844.8 512.86016 844.8M512.86016 587.776c54.62016 0 99.11296-44.4928 99.11296-99.1232 0-54.67136-44.43136-99.13344-99.11296-99.13344-54.6304 0-99.15392 44.50304-99.15392 99.13344s44.50304 99.1232 99.15392 99.1232z m0 56.32c-85.77024 0-155.43296-69.77536-155.43296-155.4432 0-85.72928 69.66272-155.4432 155.43296-155.4432 85.7088 0 155.42272 69.72416 155.42272 155.4432-0.02048 85.63712-69.71392 155.4432-155.42272 155.4432"  horiz-adv-x="1024" />

    
    <glyph glyph-name="dingwei23" unicode="&#58887;" d="M511.7 626.7c46.2 0 83.9-37.6 83.9-83.9s-37.6-83.9-83.9-83.9c-46.2 0-83.9 37.6-83.9 83.9s37.6 83.9 83.9 83.9m0 55.9c-77.2 0-139.8-62.6-139.8-139.8S434.5 403 511.7 403s139.8 62.6 139.8 139.8-62.6 139.8-139.8 139.8zM511.7-63.8c-251 0-447.7 98.4-447.7 224 0 47.9 27.9 93.1 80.8 130.6 17 12.1 36.6 23.3 58.3 33.4 14 6.6 30.6 0.5 37.2-13.5 6.5-14 0.5-30.6-13.5-37.2-18.6-8.7-35.3-18.2-49.6-28.3-26.1-18.5-57.2-48.3-57.2-84.9 0-79.5 160.9-168 391.8-168s391.8 88.6 391.8 168c0 36.8-31.3 66.6-57.5 85.1-14 9.9-30.3 19.2-48.5 27.8-14 6.6-20 23.2-13.4 37.2 6.6 14 23.2 20 37.2 13.4 21.1-9.9 40.3-20.9 57-32.7 53.1-37.5 81.2-82.8 81.2-130.8-0.2-125.7-196.9-224.1-447.9-224.1zM511.7 775.8c123.3 0 223.7-100.3 223.7-223.7 0-69.3-87-235.3-223.7-428C375.1 316.8 288 482.9 288 552.1c0 123.4 100.4 223.7 223.7 223.7m0 55.9c-154.4 0-279.6-125.2-279.6-279.6 0-126.4 187.4-396.4 255.4-490.2 6-8.3 15.1-12.4 24.2-12.4s18.2 4.1 24.2 12.4c68 93.8 255.4 363.8 255.4 490.2 0 154.4-125.2 279.6-279.6 279.6z"  horiz-adv-x="1024" />

    
    <glyph glyph-name="dingwei24" unicode="&#58900;" d="M915.049651 492.544C915.049651 715.190857 734.565587 895.674921 511.91873 895.674921S108.78781 715.190857 108.78781 492.544c0-64.235683 15.408762-124.732952 42.130285-178.631111h-1.560381s24.023365-43.918222 60.789842-104.122921l0.292571-0.682666c11.735365-19.244698 25.096127-40.374857 39.07454-62.025143l1.007746-1.592889a2203.843048 2203.843048 0 0 1 60.984889-89.526857l2.925714-4.063492a1281.787937 1281.787937 0 0 1 62.805333-80.359619c2.438095-2.82819 4.843683-5.656381 7.281778-8.419556a714.199365 714.199365 0 0 1 19.862349-22.007873h0.032508c20.089905-21.227683 39.919746-39.822222 58.741841-53.150476a83.837968 83.837968 0 0 1 97.556318 0c18.822095 13.328254 38.651937 31.922794 58.709333 53.150476h0.065016l0.455111 0.520127a723.366603 723.366603 0 0 1 26.526476 29.744762 1295.246222 1295.246222 0 0 1 63.130413 80.782222l2.535619 3.510857a2195.488508 2195.488508 0 0 1 61.179937 89.819429l1.040254 1.592889a2853.871746 2853.871746 0 0 1 39.042031 61.992635c0.16254 0.260063 0.195048 0.487619 0.32508 0.715174a2768.473397 2768.473397 0 0 1 60.757333 104.122921h-1.560381a400.822857 400.822857 0 0 1 42.130286 178.631111zM511.91873 662.853079a170.309079 170.309079 0 1 0 0-340.618158 170.309079 170.309079 0 0 0 0 340.618158z"  horiz-adv-x="1024" />

    
    <glyph glyph-name="dingwei25" unicode="&#58896;" d="M461.868166-104.675502a65.746197 65.746197 0 0 1 100.45835 0l14.482554 16.091726c11.723972 13.333145 24.827235 28.505344 39.079907 45.976361 40.229316 47.815416 80.688514 98.849177 118.159248 151.262229a1578.828245 1578.828245 0 0 1 97.699768 152.181756c49.65447 89.424023 77.240287 166.894191 77.240286 229.881806A401.143752 401.143752 0 0 1 511.9824 896 401.143752 401.143752 0 0 1 114.746639 491.178139c0-63.67726 27.585817-141.377311 77.470169-229.881806a1582.04659 1582.04659 0 0 1 97.699767-151.951874c37.700616-52.413052 77.929932-103.676695 118.389131-151.49211 14.02279-16.781372 27.355935-31.953571 39.079907-45.976361l14.942317-16.55149z m35.401799 33.332862l-14.712436 15.861844c-11.49409 13.103263-24.367471 27.815699-38.16038 44.137307-39.539671 45.976361-79.079341 97.010122-114.940903 148.503647a1534.001293 1534.001293 0 0 0-95.400949 147.354238c-45.976361 82.75745-71.033478 153.331165-71.033479 206.893625A352.408809 352.408809 0 0 0 511.9824 847.035175a352.408809 352.408809 0 0 0 348.960582-355.857036c0-53.332579-25.057117-123.906294-70.803596-206.893625A1530.782947 1530.782947 0 0 0 695.1982 137.39004c-36.781089-51.263643-76.32076-101.377877-114.940903-148.273765-13.792908-16.321608-26.66629-31.263926-38.16038-44.137307l-14.252672-15.861845a18.620426 18.620426 0 0 0-29.19499 0zM726.921889 425.891706a224.134761 224.134761 0 0 1 13.792908 77.470169 218.847479 218.847479 0 0 1-216.778543 220.916416 218.847479 218.847479 0 0 1-216.548661-220.916416 218.847479 218.847479 0 0 1 216.548661-220.916416 212.640671 212.640671 0 0 1 101.83764 25.746763 24.827235 24.827235 0 0 1 9.884918 33.10298 22.988181 22.988181 0 0 1-32.643217 10.114799 165.055137 165.055137 0 0 0-79.079341-19.999717 171.721709 171.721709 0 1 0 168.503364 171.721709 174.250409 174.250409 0 0 0-10.574563-60.229033 24.597353 24.597353 0 0 1 14.02279-31.493807 22.988181 22.988181 0 0 1 31.034044 14.482553z"  horiz-adv-x="1024" />

    
    <glyph glyph-name="dingwei26" unicode="&#59001;" d="M618.501616 772.162554c-33.538861 10.890025-69.394487 16.803711-106.645902 16.803711-37.258579 0-73.118298-5.913687-106.660229-16.803711-134.100184-43.537586-231.030817-166.822446-231.030817-311.753303 0-151.596673 204.514907-409.382854 268.595365-486.409159a1544.504698 1544.504698 0 0 1 16.341176-19.349697c13.358239-16.062837 32.568766-25.26236 52.754505-25.26236 20.224624 0 39.435151 9.199523 52.305273 24.824385 3.14462 3.64911 8.92323 10.416234 16.720823 19.787672 64.671928 77.721129 268.664949 335.017146 268.664949 486.409159 0 144.930857-96.954169 268.216741-231.045143 311.753303z m-106.683765-457.741236c-82.771145 0-150.08525 65.455781-150.08525 145.988956 0 80.56899 67.313082 146.024771 150.08525 146.024771s150.08525-65.455781 150.085251-146.024771c0-80.533175-67.313082-145.988955-150.085251-145.988956z"  horiz-adv-x="1024" />

    
    <glyph glyph-name="dingwei27" unicode="&#59644;" d="M511.639796 769.973702c-166.971849 0-302.097386-135.573745-302.097386-303.100226 0-75.55786 23.237237-128.234593 54.220902-174.865633 28.402887-41.881876 88.221274-98.876961 127.381156-143.345756 43.035142-47.926546 120.495328-147.665131 120.495328-147.665131s103.281271 126.939087 115.761514 141.189649c12.048407 14.245446 92.093465 97.577363 126.94932 143.345756 34.856879 45.76737 59.386552 110.963231 59.386552 181.341115 0.001023 167.527504-135.124514 303.100226-302.097386 303.100226z m0-427.209872c-71.503521 0-129.470747 57.381895-129.470747 128.163985s57.967226 128.163985 129.470747 128.163985 129.470747-57.381895 129.470747-128.163985-57.966203-128.163985-129.470747-128.163985z"  horiz-adv-x="1024" />

    
    <glyph glyph-name="dingwei28" unicode="&#58888;" d="M532.608-118.784H508.16l-6.848 9.856C490.496-93.376 237.376 273.6 201.6 355.52c-36.288 83.456-42.752 108.928-42.752 170.368 0 199.04 161.984 360.96 361.024 360.96 200 0 361.92-161.92 361.92-360.96 0-61.44-6.336-86.848-42.752-170.368-35.776-81.92-288.832-448.832-299.584-464.448l-6.848-9.856zM520.832 841.088c-174.72 0-316.16-141.376-316.16-315.2 0-55.04 4.736-73.536 38.976-152.064 28.48-65.6 216.512-341.76 276.736-429.76 60.288 88 248.256 364.16 276.736 429.76 34.176 78.592 38.912 97.024 38.912 152.064a315.52 315.52 0 0 1-315.2 315.2zM520.32 305.344c-105.088 0-190.592 85.504-190.592 190.592s85.504 190.656 190.592 190.656c105.152 0 190.656-85.504 190.656-190.592S625.408 305.344 520.32 305.344z m0 330.048A139.52 139.52 0 0 1 380.928 496c0-76.864 62.528-139.392 139.392-139.392S659.712 419.136 659.712 496A139.52 139.52 0 0 1 520.32 635.392z"  horiz-adv-x="1024" />

    
    <glyph glyph-name="dingwei29" unicode="&#58632;" d="M976 336h-50.984c-22.016-191.328-173.736-342.92-365.016-364.952v-51.048c0-26.512-21.488-48-48-48s-48 21.488-48 48v51.048c-191.296 22.032-343 173.624-365.032 364.952h-50.968c-26.512 0-48 21.488-48 48 0 26.504 21.488 48 48 48h51.064c22.032 191.288 173.608 343 364.936 365v51c0 26.504 21.488 48 48 48s48-21.496 48-48v-51.064c191.28-22.032 343-173.616 365.016-364.936h50.984c26.512 0 48-21.504 48-48 0-26.512-21.488-48-48-48M736 432h92.016c-20.848 138.2-129.872 247.24-268.016 268.112v-92.112c0-26.512-21.488-48-48-48s-48 21.488-48 48v92.016c-138.2-20.848-247.248-129.872-268.112-268.016h92.112c26.512 0 48-21.504 48-48 0-26.512-21.488-48-48-48h-92.016c20.848-138.216 129.872-247.248 268.016-268.096v92.096c0 26.504 21.488 48 48 48s48-21.504 48-48v-92.096c138.144 20.84 247.168 129.872 268.016 268.096h-92.016c-26.512 0-48 21.488-48 48 0 26.496 21.488 48 48 48M512 336c-26.512 0-48 21.488-48 48 0 26.504 21.488 48 48 48s48-21.504 48-48c0-26.512-21.488-48-48-48z"  horiz-adv-x="1024" />

    
    <glyph glyph-name="dingwei30" unicode="&#58925;" d="M512 683.885714c-95.085714 0-175.542857-80.457143-175.542857-175.542857 0-95.085714 80.457143-175.542857 175.542857-175.542857s175.542857 80.457143 175.542857 175.542857c0 95.085714-80.457143 175.542857-175.542857 175.542857m14.628571-797.257143c-7.314286 0-7.314286-7.314286-14.628571-7.314285s-7.314286 0-14.628571 7.314285c-14.628571 14.628571-365.714286 329.142857-365.714286 621.714286 0 204.8 168.228571 373.028571 373.028571 373.028572s373.028571-168.228571 373.028572-373.028572c7.314286-285.257143-336.457143-607.085714-351.085715-621.714286"  horiz-adv-x="1024" />

    
    <glyph glyph-name="dingwei32" unicode="&#58884;" d="M697.242 508.61c0-102.291-82.951-185.242-185.242-185.242-102.291 0-185.242 82.951-185.242 185.242s82.951 185.242 185.242 185.242c102.291 0 185.242-82.951 185.242-185.242zM512 646.051c-75.897 0-137.442-61.545-137.442-137.442s61.545-137.442 137.442-137.442 137.442 61.545 137.442 137.442-61.545 137.442-137.442 137.442zM897.931 495.595c0-213.095-387.026-610.459-387.026-610.459s-384.836 397.242-384.836 610.459c0 213.095 172.836 385.931 385.931 385.931s385.931-172.836 385.931-385.931zM512 831.658c-186.702 0-338.13-151.429-338.13-338.13s337.766-534.927 337.766-534.927 338.495 348.104 338.495 534.806c0 186.823-151.307 338.252-338.13 338.252z"  horiz-adv-x="1024" />

    
    <glyph glyph-name="dingwei-" unicode="&#58889;" d="M847.98976 496.14848c0 185.51808-150.45632 335.96928-335.98976 335.96928-185.5744 0-335.98976-150.4512-335.98976-335.96928a334.24896 334.24896 0 0 1 43.71968-165.67296h-0.11264l0.98816-1.52576a338.77504 338.77504 0 0 1 18.11456-28.15488l214.64576-333.70624s20.31616-31.2064 57.87136-31.2064c0 0 36.87424-1.29024 58.14784 30.8224l214.90688 332.71808a325.98016 325.98016 0 0 1 19.18464 29.68576l0.90624 1.36704h-0.10752a334.29504 334.29504 0 0 1 43.71456 165.67296z m-336.94208-139.8784c-77.12768 0-139.68384 62.47936-139.68384 139.648S433.92 635.58656 511.04768 635.58656c77.17376 0 139.648-62.49984 139.648-139.66848s-62.47424-139.648-139.648-139.648z"  horiz-adv-x="1024" />

    
    <glyph glyph-name="dingwei33" unicode="&#58890;" d="M570.853 495.304c13.24 13.245 20.946 31.854 20.946 50.578 0 18.728-7.706 37.337-20.946 50.579-13.243 13.241-31.853 20.953-50.582 20.953-18.723 0-37.335-7.71-50.577-20.953-13.24-13.24-20.952-31.85-20.952-50.58 0-18.723 7.71-37.331 20.952-50.577 13.24-13.236 31.854-20.952 50.577-20.952 18.73 0 37.338 7.717 50.582 20.952z m0 0M515.259 64.55999999999995h0.005c13.894 0 26.985 6.44 35.298 17.377C627.4 182.98000000000002 802.949 427.167 802.949 549.091c0 156.091-128.8 282.62-287.69 282.62-158.882 0-287.677-126.528-287.677-282.62 0-121.924 175.555-366.128 252.383-467.16 8.316-10.935 21.4-17.371 35.294-17.371z m0 715.63c129.713 0 235.24-103.664 235.24-231.095 0-68.455-81.817-220.15-215.458-400.992-4.603-6.223-11.948-9.902-19.777-9.902-7.826 0-15.176 3.679-19.774 9.902-133.645 180.843-215.467 332.529-215.467 400.992 0 127.431 105.533 231.094 235.236 231.094z m0 0M871.353 110.32500000000005c-13.803 13.654-32.706 24.935-54.636 32.615-22.485 7.873-47.325 11.871-73.859 11.871l-3.32-0.03-3.97-0.344c-12.231-1.198-21.819-11.394-22.3-23.71-0.279-6.62 2.061-12.951 6.558-17.818 4.502-4.87 10.618-7.694 17.234-7.955l29.052-1.14 1.6 0.053c42.362-5.327 63.414-23.299 68.884-28.7 6.294-6.218 10.207-13.162 10.207-18.12 0-8.502-17.826-29.147-85.294-46.464-62.448-16.013-150.552-24.841-248.082-24.841-97.615 0-186.237 8.923-249.527 25.107-68.575 17.548-86.699 38.233-86.699 46.716 0 12.132 3.776 19.358 13.453 25.788 13.036 8.657 34.643 14.34 63.749 16.907 0.97-0.15 1.96-0.24 4.674-0.24 0.147 0 28.625 1.632 28.625 1.632 13.66 0.809 24.128 12.56 23.338 26.213-0.774 13.308-11.954 23.337-26.007 23.337-0.025 0-4.22-0.24-4.198-0.24-54.1-1.174-92.545-9.814-117.537-26.418-23.577-15.67-35.539-38.203-35.539-66.974 0-23.41 13.26-43.927 39.424-60.983 20.13-13.132 48.548-24.446 84.465-33.631 67.201-17.201 160.166-26.664 261.778-26.664 101.55 0 194.024 9.373 260.362 26.402 35.53 9.106 63.65 20.384 83.583 33.515 25.79 16.986 38.865 37.457 38.865 60.835 0.002 18.77-8.598 37.198-24.883 53.28z m0 0"  horiz-adv-x="1024" />

    
    <glyph glyph-name="dingwei34" unicode="&#58892;" d="M511.596862 896c-228.643639 0-413.975069-178.41317-413.975069-398.433343 0-220.068893 413.975069-625.517937 413.975069-625.517937s414.023789 405.449044 414.023789 625.517937c0 220.020173-185.38015 398.433343-414.023789 398.433343z m-1.169284-515.41041c-84.675611 0-153.322295 66.113236-153.322295 147.622038 0 81.460082 68.646684 147.573318 153.322295 147.573318 84.675611 0 153.322295-66.113236 153.322295-147.573318 0-81.508802-68.646684-147.622038-153.322295-147.622038z"  horiz-adv-x="1024" />

    
    <glyph glyph-name="icon-gzh-location" unicode="&#58947;" d="M512 806.4512A320 320 0 0 1 192 486.4c0-176.7424 320-524.9536 320-524.9536s320 348.16 320 524.9536A320 320 0 0 1 512 806.4512z m0-506.88A186.88 186.88 0 1 0 698.88 486.4a186.88 186.88 0 0 0-186.88-186.8288zM512 486.4512m-132.1472 0a132.1472 132.1472 0 1 1 264.2944 0 132.1472 132.1472 0 1 1-264.2944 0Z"  horiz-adv-x="1024" />

    
    <glyph glyph-name="dingweitubiaowo" unicode="&#58901;" d="M512 438.5792m-155.648 0a155.648 155.648 0 1 1 311.296 0 155.648 155.648 0 1 1-311.296 0ZM512 584.3968v61.44c46.08 0 83.5584 37.4784 83.5584 83.5584S558.08 813.056 512 813.056V874.496c79.9744 0 144.9984-65.024 144.9984-144.9984S591.9744 584.3968 512 584.3968zM512 230.7072c-114.5856 0-207.872 93.2864-207.872 207.872s93.2864 207.872 207.872 207.872 207.872-93.2864 207.872-207.872c0-114.688-93.2864-207.872-207.872-207.872z m0 354.304c-80.7936 0-146.432-65.7408-146.432-146.432 0-80.7936 65.7408-146.432 146.432-146.432 80.7936 0 146.432 65.7408 146.432 146.432s-65.6384 146.432-146.432 146.432zM512 730.7264c-166.5024 0-301.4656-134.9632-301.4656-301.4656S462.2336-53.248 512-53.248s301.4656 316.0064 301.4656 482.5088S678.5024 730.7264 512 730.7264z m0-500.0192c-114.5856 0-207.872 93.2864-207.872 207.872s93.2864 207.872 207.872 207.872 207.872-93.2864 207.872-207.872c0-114.688-93.2864-207.872-207.872-207.872zM512 584.3968c-79.9744 0-144.9984 65.024-144.9984 144.9984S432.0256 874.496 512 874.496v-61.44c-46.08 0-83.5584-37.4784-83.5584-83.5584s37.4784-83.5584 83.5584-83.5584v-61.5424zM590.7456 465.92c-15.4624 0.512-37.9904 0.2048-51.6096-0.7168 1.4336-11.9808 3.4816-23.9616 6.9632-35.4304 9.216 8.704 16.384 15.4624 27.648 26.0096 2.3552-2.2528 7.3728-6.2464 9.9328-8.2944-11.776-10.3424-22.1184-20.0704-33.1776-31.3344 5.0176-14.336 12.3904-28.5696 24.1664-40.0384 0.7168-0.512 1.6384-0.2048 2.048 0.512 2.2528 6.2464 3.4816 15.2576 3.4816 23.2448 2.2528-1.1264 5.0176-2.7648 7.168-4.8128 2.2528-2.2528 3.4816-4.8128 3.1744-7.8848-1.1264-8.0896-2.9696-15.6672-5.5296-20.6848-2.048-3.8912-4.608-5.7344-7.3728-5.9392-2.9696-0.2048-5.9392 1.4336-8.8064 3.8912-13.6192 11.5712-21.4016 25.8048-28.16 41.2672-11.0592-11.776-23.04-24.4736-32.256-37.5808-1.8432 2.2528-4.096 5.3248-5.12 8.4992-0.9216 2.9696-0.9216 6.0416 1.3312 8.704 7.5776 9.0112 19.7632 22.3232 31.3344 34.304-3.8912 12.6976-6.656 28.16-9.216 44.9536-13.4144-0.512-27.2384-1.8432-40.1408-2.56 0.4096-7.168 0.512-19.1488 0.512-26.5216 8.2944 2.9696 16.384 5.9392 26.0096 9.216 1.4336-3.6864 3.1744-7.8848 4.1984-11.5712-10.1376-3.1744-20.0704-6.8608-30.0032-10.8544-0.4096-14.336-1.3312-28.16-2.3552-40.7552-0.4096-4.608-1.8432-8.704-4.096-11.5712-2.56-3.6864-6.2464-6.0416-10.1376-7.3728-4.096-1.3312-13.312-1.4336-17.92-0.9216-2.9696 0.4096-4.608 2.2528-5.9392 4.4032-1.4336 2.7648-2.048 6.2464-2.56 9.0112 6.8608-1.1264 13.6192-1.6384 20.2752-1.1264 4.608 0.4096 7.168 3.2768 7.5776 7.5776 1.3312 11.264 1.8432 23.04 1.8432 35.2256-10.3424-4.4032-28.7744-12.6976-36.864-17.1008-1.1264 2.56-1.8432 5.12-2.2528 7.7824-0.4096 3.6864 0.4096 6.8608 3.6864 8.2944 12.1856 5.12 22.3232 9.728 35.5328 14.9504 0.2048 7.7824 0 18.6368-0.2048 29.9008-13.6192-1.4336-27.136-3.6864-40.3456-6.0416 0.2048 2.7648 0.2048 5.7344 0.7168 8.0896 0.7168 2.9696 2.2528 5.12 5.5296 5.9392 9.216 1.8432 21.4016 3.1744 33.1776 4.608-0.2048 7.8848-0.7168 16.5888-1.6384 24.3712-9.216-2.56-24.6784-7.7824-32.6656-11.0592-0.512 3.1744-1.3312 6.4512-1.1264 9.4208 0.2048 2.7648 1.3312 5.12 4.4032 6.2464 16.384 6.2464 40.96 12.1856 61.952 16.384 1.8432-3.4816 4.1984-8.0896 6.0416-11.776-8.704-1.4336-17.3056-3.6864-25.8048-5.7344 0.7168-9.4208 1.3312-17.3056 1.6384-26.5216 11.4688 0.9216 29.0816 2.048 38.912 2.56-1.4336 13.312-2.56 27.4432-3.2768 41.2672 3.2768-0.2048 9.728-0.2048 12.9024-0.2048 0.512-13.6192 1.6384-26.9312 3.1744-40.3456 17.92 0.4096 35.4304 0.512 53.248 0.7168V465.92z m-16.7936 16.5888c-7.5776 9.4208-17.1008 18.0224-26.9312 24.8832 2.7648 2.7648 6.2464 6.2464 8.8064 8.4992 8.4992-5.7344 17.1008-11.9808 22.6304-18.0224 2.3552-2.3552 1.8432-5.9392 0-9.216-1.024-2.3552-2.6624-4.3008-4.5056-6.144z"  horiz-adv-x="1024" />

    
    <glyph glyph-name="yidongduan-youhuiquanzhuanhuan-" unicode="&#58893;" d="M574.800005 214.77387c64.70698 0 117.152046-11.663137 117.152046-26.033788s-52.445066-26.020771-117.152046-26.020771-117.152046 11.65012-117.152046 26.020771 52.445066 26.033788 117.152046 26.033788zM704.838776 408.595421h1.210571l-131.249342-219.855339-131.262359 219.855339h1.223588a134.321329 134.321329 0 0 0-13.147063 57.83406c0 76.695539 64.095186 138.851208 143.185834 138.851208 79.064614 0 143.185834-62.155669 143.185834-138.851208 0-20.670828-4.790217-40.222202-13.147063-57.83406z m-130.038771 115.694154c-32.945759 0-59.669442-25.903619-59.669442-57.860094 0-31.943458 26.723683-57.83406 59.669442-57.83406s59.656425 25.890602 59.656425 57.83406c0 31.956475-26.710666 57.860094-59.656425 57.860094z"  horiz-adv-x="1136" />

    
    <glyph glyph-name="dingwei35" unicode="&#59277;" d="M843.84 741.312c-112.32 137.6-291.456 187.968-472.832 132.544-161.664-49.152-270.336-192.192-267.776-352.512-2.624-86.208 32.704-161.152 88.832-227.712 72.32-85.76 136.576-132.416 222.464-216.896 60.736-68.416 127.36-66.752 188.8 0 110.272 86.848 162.752 138.176 239.744 230.272 104.448 125.568 102.912 309.184 0.768 434.304z m-93.184-372.992c-59.84-76.416-111.68-110.912-193.024-189.12-24.192-26.752-52.928-30.016-79.744 0-81.728 78.848-136.128 115.584-199.488 193.6-35.84 43.776-57.92 94.912-52.224 145.6 0 118.08 78.208 215.936 196.416 252.544 116.8 36.032 246.08 1.152 321.792-87.04 80.192-93.376 85.76-214.08 6.272-315.584z m-248.96 348.48c-107.136-0.576-187.712-82.048-187.712-189.952 0.064-109.632 83.008-192.32 194.112-194.048 111.104-1.472 202.56 87.296 201.92 196.416-0.704 107.392-90.368 188.224-208.32 187.584z m10.24-271.552c-47.296 0.32-83.52 36.672-82.24 82.752 1.28 44.608 36.608 77.76 82.432 77.248 48.64-0.448 83.52-35.072 82.56-81.728-0.704-43.648-37.632-78.592-82.752-78.272zM512-128c-225.216 0-426.688 98.048-426.688 173.312 0 39.168 82.88 100.032 177.792 119.68 12.864 2.88 25.216 0.32 51.136-27.712 0.064-0.32-0.064 0.32 0 0 6.016-11.2 15.552-35.008-1.728-45.12l-0.064-0.064c-71.552-15.104-62.656-36.352-62.656-44.416 0-19.392 59.776-60.48 262.144-60.48 202.304 0 271.168 37.12 271.168 56.512 0 6.784 3.648 22.592-53.12 44.224-13.12 2.88-22.464 27.776-4.096 48.448 3.328 11.84 24.832 32.512 38.016 29.568 0.384-0.064-0.384 0.064 0 0 103.168-25.152 174.784-95.616 174.784-120.768 0-105.472-255.36-173.184-426.688-173.184z"  horiz-adv-x="1024" />

    
    <glyph glyph-name="location1" unicode="&#58898;" d="M512.103132 575.879021a106.221743 106.221743 0 1 0-75.507022-31.354611A106.221743 106.221743 0 0 0 512.103132 575.879021m0 63.989002a170.850635 170.850635 0 1 1 120.939214-49.911422A169.570855 169.570855 0 0 1 512.103132 639.868023zM805.172761 771.685367a407.609942 407.609942 0 0 1-586.139257 0 431.285873 431.285873 0 0 1 0-599.576948L512.103132-128l293.069629 300.108419a431.285873 431.285873 0 0 1 0 599.576948z m-44.152411-557.344207l-248.917218-255.956007-248.917217 255.956007a365.377201 365.377201 0 0 0 0 508.712565 346.82039 346.82039 0 0 0 497.834435 0 365.377201 365.377201 0 0 0 0-508.712565z"  horiz-adv-x="1024" />

    


  </font>
</defs>
</svg>
